<mxfile host="app.diagrams.net" modified="2023-05-24T18:44:38.669Z" agent="Mozilla/5.0 (Macintosh; Intel Mac OS X 10_15_7) AppleWebKit/537.36 (KHTML, like Gecko) Chrome/113.0.0.0 Safari/537.36" etag="vAwq6gUpVelvdSI1Ye_I" version="21.3.3" type="device">
  <diagram name="Page-1" id="eUzvhIm6J3B9yVTltbxv">
    <mxGraphModel dx="1026" dy="564" grid="1" gridSize="10" guides="1" tooltips="1" connect="1" arrows="1" fold="1" page="1" pageScale="1" pageWidth="1169" pageHeight="827" math="0" shadow="0">
      <root>
        <mxCell id="0" />
        <mxCell id="1" parent="0" />
        <mxCell id="skxu01H5Ncu8MMe_8wKI-7" value="" style="rounded=1;whiteSpace=wrap;html=1;" parent="1" vertex="1">
          <mxGeometry x="170" y="120" width="590" height="510" as="geometry" />
        </mxCell>
        <mxCell id="skxu01H5Ncu8MMe_8wKI-1" value="&lt;font style=&quot;font-size: 18px;&quot;&gt;&amp;nbsp; Wasm&lt;br&gt;&amp;nbsp; Module&lt;/font&gt;" style="rounded=1;whiteSpace=wrap;html=1;fillColor=#dae8fc;strokeColor=#6c8ebf;align=left;" parent="1" vertex="1">
          <mxGeometry x="190" y="160" width="290" height="120" as="geometry" />
        </mxCell>
        <mxCell id="skxu01H5Ncu8MMe_8wKI-2" value="&lt;span style=&quot;font-size: 18px;&quot;&gt;&amp;nbsp; Linear&lt;br&gt;&amp;nbsp; Memory&lt;/span&gt;" style="rounded=1;whiteSpace=wrap;html=1;fillColor=none;strokeColor=#a8ccff;align=left;strokeWidth=5;" parent="1" vertex="1">
          <mxGeometry x="190" y="310" width="290" height="120" as="geometry" />
        </mxCell>
        <mxCell id="skxu01H5Ncu8MMe_8wKI-3" value="&lt;font style=&quot;font-size: 18px;&quot;&gt;&amp;nbsp; JavaScript Core&lt;/font&gt;" style="rounded=1;whiteSpace=wrap;html=1;fillColor=#fff2cc;strokeColor=#d6b656;align=left;" parent="1" vertex="1">
          <mxGeometry x="530" y="160" width="200" height="120" as="geometry" />
        </mxCell>
        <mxCell id="skxu01H5Ncu8MMe_8wKI-4" value="&lt;font style=&quot;font-size: 18px;&quot;&gt;&amp;nbsp; JavaScript Heap&lt;/font&gt;" style="rounded=1;whiteSpace=wrap;html=1;fillColor=none;strokeColor=#f7e1a1;align=left;strokeWidth=5;" parent="1" vertex="1">
          <mxGeometry x="530" y="310" width="200" height="120" as="geometry" />
        </mxCell>
        <mxCell id="skxu01H5Ncu8MMe_8wKI-5" value="&lt;font style=&quot;font-size: 17px;&quot;&gt;Garbage Collector&lt;/font&gt;" style="rounded=0;whiteSpace=wrap;html=1;" parent="1" vertex="1">
          <mxGeometry x="290" y="185" width="160" height="70" as="geometry" />
        </mxCell>
        <mxCell id="skxu01H5Ncu8MMe_8wKI-6" value="&lt;font style=&quot;font-size: 18px;&quot;&gt;&amp;nbsp; Garbage Collector&lt;/font&gt;" style="rounded=1;whiteSpace=wrap;html=1;fillColor=none;strokeColor=#f7e1a1;align=left;strokeWidth=5;" parent="1" vertex="1">
          <mxGeometry x="530" y="460" width="200" height="120" as="geometry" />
        </mxCell>
        <mxCell id="skxu01H5Ncu8MMe_8wKI-8" value="&lt;font style=&quot;font-size: 17px;&quot;&gt;Web App&lt;/font&gt;" style="text;html=1;strokeColor=none;fillColor=none;align=center;verticalAlign=middle;whiteSpace=wrap;rounded=0;" parent="1" vertex="1">
          <mxGeometry x="200" y="580" width="90" height="30" as="geometry" />
        </mxCell>
        <mxCell id="skxu01H5Ncu8MMe_8wKI-9" value="&lt;font style=&quot;font-size: 17px;&quot;&gt;[Language] Heap&lt;/font&gt;" style="rounded=0;whiteSpace=wrap;html=1;" parent="1" vertex="1">
          <mxGeometry x="290" y="330" width="160" height="80" as="geometry" />
        </mxCell>
        <mxCell id="skxu01H5Ncu8MMe_8wKI-10" value="&lt;font style=&quot;font-size: 16px;&quot;&gt;#1&lt;/font&gt;" style="text;html=1;align=center;verticalAlign=middle;whiteSpace=wrap;rounded=1;glass=0;strokeColor=default;perimeterSpacing=0;strokeWidth=1;" parent="1" vertex="1">
          <mxGeometry x="290" y="235" width="30" height="20" as="geometry" />
        </mxCell>
        <mxCell id="skxu01H5Ncu8MMe_8wKI-11" value="&lt;font style=&quot;font-size: 17px;&quot;&gt;#1&lt;/font&gt;" style="text;html=1;align=center;verticalAlign=middle;whiteSpace=wrap;rounded=1;glass=0;strokeColor=default;perimeterSpacing=0;strokeWidth=1;" parent="1" vertex="1">
          <mxGeometry x="540" y="540" width="30" height="30" as="geometry" />
        </mxCell>
        <mxCell id="skxu01H5Ncu8MMe_8wKI-14" value="&lt;font style=&quot;font-size: 16px;&quot;&gt;#2&lt;/font&gt;" style="text;html=1;align=center;verticalAlign=middle;whiteSpace=wrap;rounded=1;glass=0;strokeColor=default;perimeterSpacing=0;strokeWidth=1;" parent="1" vertex="1">
          <mxGeometry x="290" y="390" width="30" height="20" as="geometry" />
        </mxCell>
        <mxCell id="skxu01H5Ncu8MMe_8wKI-15" value="&lt;font style=&quot;font-size: 17px;&quot;&gt;#2&lt;/font&gt;" style="text;html=1;align=center;verticalAlign=middle;whiteSpace=wrap;rounded=1;glass=0;strokeColor=default;perimeterSpacing=0;strokeWidth=1;" parent="1" vertex="1">
          <mxGeometry x="540" y="390" width="30" height="30" as="geometry" />
        </mxCell>
        <mxCell id="skxu01H5Ncu8MMe_8wKI-17" value="&lt;font style=&quot;font-size: 18px;&quot;&gt;&amp;nbsp; DOM&lt;/font&gt;" style="rounded=1;whiteSpace=wrap;html=1;fillColor=none;strokeColor=#82b366;align=left;strokeWidth=5;" parent="1" vertex="1">
          <mxGeometry x="880" y="250" width="140" height="70" as="geometry" />
        </mxCell>
        <mxCell id="skxu01H5Ncu8MMe_8wKI-19" value="&lt;span style=&quot;font-size: 18px;&quot;&gt;&amp;nbsp; WebGL&lt;br&gt;&amp;nbsp; WebGPU&lt;br&gt;&lt;/span&gt;" style="rounded=1;whiteSpace=wrap;html=1;fillColor=none;strokeColor=#82b366;align=left;strokeWidth=5;" parent="1" vertex="1">
          <mxGeometry x="880" y="340" width="140" height="70" as="geometry" />
        </mxCell>
        <mxCell id="skxu01H5Ncu8MMe_8wKI-20" value="&lt;font style=&quot;font-size: 18px;&quot;&gt;&amp;nbsp; Canvas&lt;/font&gt;" style="rounded=1;whiteSpace=wrap;html=1;fillColor=none;strokeColor=#82b366;align=left;strokeWidth=5;" parent="1" vertex="1">
          <mxGeometry x="880" y="430" width="140" height="70" as="geometry" />
        </mxCell>
        <mxCell id="skxu01H5Ncu8MMe_8wKI-21" value="" style="endArrow=none;html=1;rounded=0;fillColor=#d5e8d4;strokeColor=#82B366;strokeWidth=4;" parent="1" edge="1">
          <mxGeometry width="50" height="50" relative="1" as="geometry">
            <mxPoint x="860" y="560" as="sourcePoint" />
            <mxPoint x="860" y="200" as="targetPoint" />
          </mxGeometry>
        </mxCell>
        <mxCell id="skxu01H5Ncu8MMe_8wKI-22" value="" style="endArrow=classic;startArrow=classic;html=1;rounded=0;exitX=1.025;exitY=0.579;exitDx=0;exitDy=0;exitPerimeter=0;strokeColor=#82B366;strokeWidth=3;" parent="1" source="skxu01H5Ncu8MMe_8wKI-4" edge="1">
          <mxGeometry width="50" height="50" relative="1" as="geometry">
            <mxPoint x="750" y="390" as="sourcePoint" />
            <mxPoint x="860" y="380" as="targetPoint" />
          </mxGeometry>
        </mxCell>
        <mxCell id="skxu01H5Ncu8MMe_8wKI-23" value="&lt;font style=&quot;font-size: 18px;&quot;&gt;Call&lt;/font&gt;" style="edgeLabel;html=1;align=center;verticalAlign=middle;resizable=0;points=[];" parent="skxu01H5Ncu8MMe_8wKI-22" vertex="1" connectable="0">
          <mxGeometry x="-0.0401" y="1" relative="1" as="geometry">
            <mxPoint x="5" y="-19" as="offset" />
          </mxGeometry>
        </mxCell>
        <mxCell id="skxu01H5Ncu8MMe_8wKI-25" value="&lt;font style=&quot;font-size: 18px;&quot;&gt;#2 Problem: Split brain&lt;/font&gt;" style="text;html=1;strokeColor=none;fillColor=none;align=left;verticalAlign=middle;whiteSpace=wrap;rounded=0;" parent="1" vertex="1">
          <mxGeometry x="200" y="510" width="210" height="40" as="geometry" />
        </mxCell>
        <mxCell id="skxu01H5Ncu8MMe_8wKI-26" value="&lt;font style=&quot;font-size: 18px;&quot;&gt;#1 Problem: Bloat&lt;/font&gt;" style="text;html=1;strokeColor=none;fillColor=none;align=left;verticalAlign=middle;whiteSpace=wrap;rounded=0;" parent="1" vertex="1">
          <mxGeometry x="200" y="480" width="210" height="30" as="geometry" />
        </mxCell>
      </root>
    </mxGraphModel>
  </diagram>
</mxfile>
